<svg width="251" height="329" viewBox="0 0 251 329" fill="none" xmlns="http://www.w3.org/2000/svg">
<path fill-rule="evenodd" clip-rule="evenodd" d="M286.791 188.757C268.325 187.459 241.331 238.599 211.858 233.492C182.384 228.385 160.2 244.153 146.228 222.121C132.84 201.009 143.936 138.47 161.792 120.99C179.719 103.441 188.496 103.151 213.14 96.9579C230.117 92.6916 253.544 34.0633 271.104 34.079C290.315 34.096 345.104 18.8618 358.013 32.8113C370.702 46.5237 367.675 67.0761 371.758 85.0727C376.173 104.533 381.125 124.921 367.972 140.061C353.694 156.496 336.325 145.692 315.901 153.958C298.289 161.087 309.594 190.36 286.791 188.757Z" fill="url(#paint0_linear_1493_5889)"/>
<path fill-rule="evenodd" clip-rule="evenodd" d="M159.356 361.107C183.926 372.593 193.892 327.815 219.107 325.477C238.634 323.667 261.34 360.638 276.08 350.287C292.861 338.501 264.648 306.684 272.262 288.147C277.448 275.52 305.357 281.695 309.604 268.663C313.606 256.385 298.85 242.618 291.185 230.084C284.672 219.435 278.437 208.186 267.911 200.488C257.977 193.223 269.237 191.154 257.58 187.63C247.551 184.599 238.051 165.398 229.161 159.613C205.205 144.024 209.675 144.882 184.357 150.75C161.183 156.12 159.356 176.13 145.021 194.741C114.58 213.63 76.9984 205.433 70.08 213.63C36.58 213.63 9.59687 242.965 14.58 262.8C19.2985 281.582 112.077 305.249 124.073 322.084C139.212 343.329 134.946 349.696 159.356 361.107Z" fill="url(#paint1_linear_1493_5889)"/>
<defs>
<linearGradient id="paint0_linear_1493_5889" x1="266.792" y1="197.358" x2="214.727" y2="68.3164" gradientUnits="userSpaceOnUse">
<stop stop-color="#DE7D78"/>
<stop offset="1" stop-color="#C7BCEC"/>
</linearGradient>
<linearGradient id="paint1_linear_1493_5889" x1="108.819" y1="207.367" x2="161.89" y2="304.039" gradientUnits="userSpaceOnUse">
<stop stop-color="#E0E3AB"/>
<stop offset="1" stop-color="#3994AA"/>
</linearGradient>
</defs>
</svg>
