<svg width="537" height="495" viewBox="0 0 537 495" fill="none" xmlns="http://www.w3.org/2000/svg">
<path fill-rule="evenodd" clip-rule="evenodd" d="M444.345 615.654C416.98 673.802 328.752 610.894 278.631 645.857C239.817 672.933 255.65 772.783 212.332 777.501C163.017 782.872 165.374 683.51 122.422 662.871C93.1637 648.812 51.3587 702.841 23.1982 686.618C-3.33193 671.335 2.38505 624.394 -3.04216 590.595C-7.65338 561.878 -13.7132 532.539 -6.32294 502.77C0.651805 474.674 21.241 452.597 37.2277 428.38C50.9824 407.543 -6.03348 395.131 1.3253 371.243C21.1569 306.865 14.2577 315.29 70.0746 286.343C121.163 259.848 171.31 268.064 211.207 302.386C230.745 319.194 259.29 317.127 284.83 320.753C329.863 327.146 403.809 338.231 425.571 380.651C446.177 420.819 444.337 444.702 448.492 492.735C453.736 553.352 471.533 557.882 444.345 615.654Z" fill="url(#paint0_linear_1473_5891)"/>
<path fill-rule="evenodd" clip-rule="evenodd" d="M55.7482 505.794C3.22684 525.938 -12.6584 437.002 -65.0114 429.93C-105.554 424.454 -156.979 494.841 -186.599 473.058C-220.319 448.258 -157.969 388.535 -171.823 351.376C-181.259 326.064 -240.166 335.448 -247.6 309.432C-254.603 284.922 -222.307 259.33 -204.942 235.466C-190.187 215.189 -175.946 193.705 -153.141 179.62C-131.619 166.327 -105.385 164.492 -80.6785 158.717C-59.4217 153.749 -86.9946 113.632 -67.814 103.144C-16.1232 74.8795 -53.1809 21.4849 -0.999999 35.4998C46.7603 48.3273 100.304 136.592 103.887 180.42C105.642 201.883 124.521 216.878 138.058 233.659C161.926 263.249 200.759 312.197 188.189 350.668C176.286 387.096 160.513 400.725 133.64 432.613C99.7249 472.856 107.929 485.781 55.7482 505.794Z" fill="url(#paint1_linear_1473_5891)"/>
<defs>
<linearGradient id="paint0_linear_1473_5891" x1="345.406" y1="255.387" x2="254.5" y2="550.001" gradientUnits="userSpaceOnUse">
<stop stop-color="#E0E3AB"/>
<stop offset="1" stop-color="#3994AA"/>
</linearGradient>
<linearGradient id="paint1_linear_1473_5891" x1="61" y1="-8.99921" x2="21" y2="585.001" gradientUnits="userSpaceOnUse">
<stop stop-color="#3D66A3"/>
<stop offset="0.255208" stop-color="#40AAC4"/>
<stop offset="0.8125" stop-color="#A1A741"/>
</linearGradient>
</defs>
</svg>
