<svg width="30" height="30" viewBox="0 0 30 30" fill="none" xmlns="http://www.w3.org/2000/svg">
<path d="M16.4998 1.6665C16.4998 0.838077 15.8283 0.166504 14.9998 0.166504C14.1714 0.166504 13.4998 0.838077 13.4998 1.6665H16.4998ZM13.4998 3.33317C13.4998 4.1616 14.1714 4.83317 14.9998 4.83317C15.8283 4.83317 16.4998 4.1616 16.4998 3.33317H13.4998ZM24.9998 20.1665C24.1714 20.1665 23.4998 20.8381 23.4998 21.6665C23.4998 22.4949 24.1714 23.1665 24.9998 23.1665V20.1665ZM28.3332 23.1665C29.1616 23.1665 29.8332 22.4949 29.8332 21.6665C29.8332 20.8381 29.1616 20.1665 28.3332 20.1665V23.1665ZM14.9998 21.6665V20.1665C14.1714 20.1665 13.4998 20.8381 13.4998 21.6665H14.9998ZM18.3332 23.1665C19.1616 23.1665 19.8332 22.4949 19.8332 21.6665C19.8332 20.8381 19.1616 20.1665 18.3332 20.1665V23.1665ZM13.4998 28.3332C13.4998 29.1616 14.1714 29.8332 14.9998 29.8332C15.8283 29.8332 16.4998 29.1616 16.4998 28.3332H13.4998ZM16.4998 9.99984C16.4998 9.17141 15.8283 8.49984 14.9998 8.49984C14.1714 8.49984 13.4998 9.17141 13.4998 9.99984H16.4998ZM14.9998 14.9998H13.4998C13.4998 15.8283 14.1714 16.4998 14.9998 16.4998V14.9998ZM21.6665 26.8332C20.8381 26.8332 20.1665 27.5047 20.1665 28.3332C20.1665 29.1616 20.8381 29.8332 21.6665 29.8332V26.8332ZM28.3332 29.8332C29.1616 29.8332 29.8332 29.1616 29.8332 28.3332C29.8332 27.5047 29.1616 26.8332 28.3332 26.8332V29.8332ZM1.6665 13.4998C0.838077 13.4998 0.166504 14.1714 0.166504 14.9998C0.166504 15.8283 0.838077 16.4998 1.6665 16.4998V13.4998ZM8.33317 16.4998C9.1616 16.4998 9.83317 15.8283 9.83317 14.9998C9.83317 14.1714 9.1616 13.4998 8.33317 13.4998V16.4998ZM15.0165 16.4998C15.8449 16.4998 16.5165 15.8283 16.5165 14.9998C16.5165 14.1714 15.8449 13.4998 15.0165 13.4998V16.4998ZM21.6832 16.4998C22.5116 16.4998 23.1832 15.8283 23.1832 14.9998C23.1832 14.1714 22.5116 13.4998 21.6832 13.4998V16.4998ZM28.3332 13.4998C27.5047 13.4998 26.8332 14.1714 26.8332 14.9998C26.8332 15.8283 27.5047 16.4998 28.3332 16.4998V13.4998ZM28.3498 16.4998C29.1783 16.4998 29.8498 15.8283 29.8498 14.9998C29.8498 14.1714 29.1783 13.4998 28.3498 13.4998V16.4998ZM3.33317 3.1665H6.6665V0.166504H3.33317V3.1665ZM6.83317 3.33317V6.6665H9.83317V3.33317H6.83317ZM6.6665 6.83317H3.33317V9.83317H6.6665V6.83317ZM3.1665 6.6665V3.33317H0.166504V6.6665H3.1665ZM3.33317 6.83317C3.24112 6.83317 3.1665 6.75855 3.1665 6.6665H0.166504C0.166504 8.41541 1.58427 9.83317 3.33317 9.83317V6.83317ZM6.83317 6.6665C6.83317 6.75855 6.75855 6.83317 6.6665 6.83317V9.83317C8.41541 9.83317 9.83317 8.41541 9.83317 6.6665H6.83317ZM6.6665 3.1665C6.75855 3.1665 6.83317 3.24112 6.83317 3.33317H9.83317C9.83317 1.58427 8.41541 0.166504 6.6665 0.166504V3.1665ZM3.33317 0.166504C1.58427 0.166504 0.166504 1.58427 0.166504 3.33317H3.1665C3.1665 3.24112 3.24112 3.1665 3.33317 3.1665V0.166504ZM23.3332 3.1665H26.6665V0.166504H23.3332V3.1665ZM26.8332 3.33317V6.6665H29.8332V3.33317H26.8332ZM26.6665 6.83317H23.3332V9.83317H26.6665V6.83317ZM23.1665 6.6665V3.33317H20.1665V6.6665H23.1665ZM23.3332 6.83317C23.2411 6.83317 23.1665 6.75855 23.1665 6.6665H20.1665C20.1665 8.41541 21.5843 9.83317 23.3332 9.83317V6.83317ZM26.8332 6.6665C26.8332 6.75855 26.7586 6.83317 26.6665 6.83317V9.83317C28.4154 9.83317 29.8332 8.41541 29.8332 6.6665H26.8332ZM26.6665 3.1665C26.7586 3.1665 26.8332 3.24112 26.8332 3.33317H29.8332C29.8332 1.58427 28.4154 0.166504 26.6665 0.166504V3.1665ZM23.3332 0.166504C21.5843 0.166504 20.1665 1.58427 20.1665 3.33317H23.1665C23.1665 3.24112 23.2411 3.1665 23.3332 3.1665V0.166504ZM3.33317 23.1665H6.6665V20.1665H3.33317V23.1665ZM6.83317 23.3332V26.6665H9.83317V23.3332H6.83317ZM6.6665 26.8332H3.33317V29.8332H6.6665V26.8332ZM3.1665 26.6665V23.3332H0.166504V26.6665H3.1665ZM3.33317 26.8332C3.24112 26.8332 3.1665 26.7586 3.1665 26.6665H0.166504C0.166504 28.4154 1.58427 29.8332 3.33317 29.8332V26.8332ZM6.83317 26.6665C6.83317 26.7586 6.75855 26.8332 6.6665 26.8332V29.8332C8.41541 29.8332 9.83317 28.4154 9.83317 26.6665H6.83317ZM6.6665 23.1665C6.75855 23.1665 6.83317 23.2411 6.83317 23.3332H9.83317C9.83317 21.5843 8.41541 20.1665 6.6665 20.1665V23.1665ZM3.33317 20.1665C1.58427 20.1665 0.166504 21.5843 0.166504 23.3332H3.1665C3.1665 23.2411 3.24112 23.1665 3.33317 23.1665V20.1665ZM13.4998 1.6665V3.33317H16.4998V1.6665H13.4998ZM24.9998 23.1665H28.3332V20.1665H24.9998V23.1665ZM14.9998 23.1665H18.3332V20.1665H14.9998V23.1665ZM13.4998 21.6665V28.3332H16.4998V21.6665H13.4998ZM13.4998 9.99984V14.9998H16.4998V9.99984H13.4998ZM21.6665 29.8332H28.3332V26.8332H21.6665V29.8332ZM1.6665 16.4998H8.33317V13.4998H1.6665V16.4998ZM14.9998 16.4998H15.0165V13.4998H14.9998V16.4998ZM28.3332 16.4998H28.3498V13.4998H28.3332V16.4998ZM14.9998 16.4998H21.6832V13.4998H14.9998V16.4998Z" fill="#111827"/>
</svg>
