<svg width="180" height="230" viewBox="0 0 180 230" fill="none" xmlns="http://www.w3.org/2000/svg">
  <mask id="path-1-inside-1_1296_5484" fill="white">
    <path fill-rule="evenodd" clip-rule="evenodd"
      d="M151.952 0.780885L27.2882 0.780884L27.2882 73.8762L27.7017 73.8762L73.8293 98.6529L73.8293 115.617L27.7022 140.394L27.288 140.394L27.288 213.489L151.952 213.489L151.952 140.394L151.538 140.394L105.411 115.617L105.411 98.6532L151.539 73.8762L151.952 73.8762L151.952 0.780885Z" />
  </mask>
  <path
    d="M27.2883 0.780884L27.2883 -4.50676L21.9842 -4.50676L21.9842 0.780884L27.2883 0.780884ZM151.953 0.780885L157.257 0.780885L157.257 -4.50676L151.953 -4.50676L151.953 0.780885ZM27.2883 73.8762L21.9842 73.8762L21.9842 79.1638L27.2883 79.1638L27.2883 73.8762ZM27.7019 73.8762L30.2178 69.2213L29.0399 68.5886L27.7019 68.5886L27.7019 73.8762ZM73.8295 98.6529L79.1336 98.6529L79.1336 95.4956L76.3454 93.998L73.8295 98.6529ZM73.8295 115.617L76.3454 120.272L79.1336 118.774L79.1336 115.617L73.8295 115.617ZM27.7023 140.394L27.7023 145.681L29.0404 145.681L30.2183 145.049L27.7023 140.394ZM27.2881 140.394L27.2881 135.106L21.984 135.106L21.984 140.394L27.2881 140.394ZM27.2881 213.489L21.984 213.489L21.984 218.777L27.2881 218.777L27.2881 213.489ZM151.952 213.489L151.952 218.777L157.256 218.777L157.256 213.489L151.952 213.489ZM151.952 140.394L157.256 140.394L157.256 135.106L151.952 135.106L151.952 140.394ZM151.538 140.394L149.023 145.049L150.2 145.681L151.538 145.681L151.538 140.394ZM105.411 115.617L100.107 115.617L100.107 118.774L102.895 120.272L105.411 115.617ZM105.411 98.6532L102.895 93.9982L100.107 95.4959L100.107 98.6532L105.411 98.6532ZM151.539 73.8762L151.539 68.5886L150.201 68.5886L149.023 69.2213L151.539 73.8762ZM151.953 73.8762L151.953 79.1638L157.257 79.1638L157.257 73.8762L151.953 73.8762ZM27.2883 6.06852L151.953 6.06853L151.953 -4.50676L27.2883 -4.50676L27.2883 6.06852ZM32.5924 73.8762L32.5924 0.780884L21.9842 0.780884L21.9842 73.8762L32.5924 73.8762ZM27.7019 68.5886L27.2883 68.5886L27.2883 79.1638L27.7019 79.1638L27.7019 68.5886ZM76.3454 93.998L30.2178 69.2213L25.1859 78.5311L71.3135 103.308L76.3454 93.998ZM79.1336 115.617L79.1336 98.6529L68.5253 98.6529L68.5253 115.617L79.1336 115.617ZM30.2183 145.049L76.3454 120.272L71.3135 110.962L25.1864 135.739L30.2183 145.049ZM27.2881 145.681L27.7023 145.681L27.7023 135.106L27.2881 135.106L27.2881 145.681ZM32.5922 213.489L32.5922 140.394L21.984 140.394L21.984 213.489L32.5922 213.489ZM151.952 208.201L27.2881 208.201L27.2881 218.777L151.952 218.777L151.952 208.201ZM146.648 140.394L146.648 213.489L157.256 213.489L157.256 140.394L146.648 140.394ZM151.538 145.681L151.952 145.681L151.952 135.106L151.538 135.106L151.538 145.681ZM102.895 120.272L149.023 145.049L154.054 135.739L107.927 110.962L102.895 120.272ZM100.107 98.6532L100.107 115.617L110.715 115.617L110.715 98.6532L100.107 98.6532ZM149.023 69.2213L102.895 93.9982L107.927 103.308L154.055 78.5311L149.023 69.2213ZM151.953 68.5886L151.539 68.5886L151.539 79.1638L151.953 79.1638L151.953 68.5886ZM146.648 0.780885L146.648 73.8762L157.257 73.8762L157.257 0.780885L146.648 0.780885Z"
    fill="#240668" mask="url(#path-1-inside-1_1296_5484)" />
  <path fill-rule="evenodd" clip-rule="evenodd"
    d="M38.5076 51.9478L140.317 51.9478L140.317 66.8412L140.722 66.8412L93.7753 92.7786L93.7753 123.581L86.2955 123.581L86.2955 93.2375L38.6827 66.9323L38.5076 66.9323L38.5076 51.9478ZM89.6203 175.844L140.723 204.077L38.5181 204.077L89.6203 175.844ZM93.3602 126.503L85.8804 126.503L85.8804 129.792L93.3602 129.792L93.3602 126.503ZM85.8803 132.716L93.3602 132.716L93.3602 136.006L85.8803 136.006L85.8803 132.716ZM93.3602 138.929L85.8803 138.929L85.8803 142.219L93.3602 142.219L93.3602 138.929Z"
    fill="url(#paint0_linear_1296_5484)" />
  <defs>
    <linearGradient id="paint0_linear_1296_5484" x1="89.9565" y1="50.3221" x2="90.9114" y2="203.899"
      gradientUnits="userSpaceOnUse">
      <stop stop-color="#CFA9CA" />
      <stop offset="1" stop-color="#4AAAB9" />
    </linearGradient>
  </defs>
</svg>