<svg xmlns="http://www.w3.org/2000/svg" style="margin:auto;background:0 0;display:block;shape-rendering:auto" width="200" height="200" viewBox="20 20 60 60" preserveAspectRatio="xMidYMid">
  <rect x="48" y="24" rx="2" ry="2.64" width="4" height="12" fill="#26294c">
    <animate attributeName="opacity" values="1;0" keyTimes="0;1" dur="1.3157894736842106s" begin="-1.2061403508771928s" repeatCount="indefinite"/>
  </rect>
  <rect x="48" y="24" rx="2" ry="2.64" width="4" height="12" fill="#26294c" transform="rotate(30 50 50)">
    <animate attributeName="opacity" values="1;0" keyTimes="0;1" dur="1.3157894736842106s" begin="-1.0964912280701753s" repeatCount="indefinite"/>
  </rect>
  <rect x="48" y="24" rx="2" ry="2.64" width="4" height="12" fill="#26294c" transform="rotate(60 50 50)">
    <animate attributeName="opacity" values="1;0" keyTimes="0;1" dur="1.3157894736842106s" begin="-0.9868421052631577s" repeatCount="indefinite"/>
  </rect>
  <rect x="48" y="24" rx="2" ry="2.64" width="4" height="12" fill="#26294c" transform="rotate(90 50 50)">
    <animate attributeName="opacity" values="1;0" keyTimes="0;1" dur="1.3157894736842106s" begin="-0.8771929824561403s" repeatCount="indefinite"/>
  </rect>
  <rect x="48" y="24" rx="2" ry="2.64" width="4" height="12" fill="#26294c" transform="rotate(120 50 50)">
    <animate attributeName="opacity" values="1;0" keyTimes="0;1" dur="1.3157894736842106s" begin="-0.7675438596491228s" repeatCount="indefinite"/>
  </rect>
  <rect x="48" y="24" rx="2" ry="2.64" width="4" height="12" fill="#26294c" transform="rotate(150 50 50)">
    <animate attributeName="opacity" values="1;0" keyTimes="0;1" dur="1.3157894736842106s" begin="-0.6578947368421052s" repeatCount="indefinite"/>
  </rect>
  <rect x="48" y="24" rx="2" ry="2.64" width="4" height="12" fill="#26294c" transform="rotate(180 50 50)">
    <animate attributeName="opacity" values="1;0" keyTimes="0;1" dur="1.3157894736842106s" begin="-0.5482456140350876s" repeatCount="indefinite"/>
  </rect>
  <rect x="48" y="24" rx="2" ry="2.64" width="4" height="12" fill="#26294c" transform="rotate(210 50 50)">
    <animate attributeName="opacity" values="1;0" keyTimes="0;1" dur="1.3157894736842106s" begin="-0.43859649122807015s" repeatCount="indefinite"/>
  </rect>
  <rect x="48" y="24" rx="2" ry="2.64" width="4" height="12" fill="#26294c" transform="rotate(240 50 50)">
    <animate attributeName="opacity" values="1;0" keyTimes="0;1" dur="1.3157894736842106s" begin="-0.3289473684210526s" repeatCount="indefinite"/>
  </rect>
  <rect x="48" y="24" rx="2" ry="2.64" width="4" height="12" fill="#26294c" transform="rotate(270 50 50)">
    <animate attributeName="opacity" values="1;0" keyTimes="0;1" dur="1.3157894736842106s" begin="-0.21929824561403508s" repeatCount="indefinite"/>
  </rect>
  <rect x="48" y="24" rx="2" ry="2.64" width="4" height="12" fill="#26294c" transform="rotate(300 50 50)">
    <animate attributeName="opacity" values="1;0" keyTimes="0;1" dur="1.3157894736842106s" begin="-0.10964912280701754s" repeatCount="indefinite"/>
  </rect>
  <rect x="48" y="24" rx="2" ry="2.64" width="4" height="12" fill="#26294c" transform="rotate(330 50 50)">
    <animate attributeName="opacity" values="1;0" keyTimes="0;1" dur="1.3157894736842106s" begin="0s" repeatCount="indefinite"/>
  </rect>
</svg>
