<svg width="24" height="24" viewBox="0 0 24 24" fill="none" xmlns="http://www.w3.org/2000/svg">
  <path
    d="M16.7978 15.3475C16.4374 15.766 16.4845 16.3974 16.903 16.7578C17.3215 17.1181 17.9529 17.071 18.3133 16.6525L16.7978 15.3475ZM21 12L21.7578 12.6525C22.0807 12.2775 22.0807 11.7225 21.7578 11.3475L21 12ZM18.3133 7.34748C17.9529 6.92897 17.3215 6.88185 16.903 7.24223C16.4845 7.60261 16.4374 8.23402 16.7978 8.65252L18.3133 7.34748ZM10 11C9.44772 11 9 11.4477 9 12C9 12.5523 9.44772 13 10 13V11ZM15.1111 16C15.1111 15.4477 14.6634 15 14.1111 15C13.5588 15 13.1111 15.4477 13.1111 16H15.1111ZM13.1111 8C13.1111 8.55228 13.5588 9 14.1111 9C14.6634 9 15.1111 8.55228 15.1111 8H13.1111ZM13 4.76389L13.6273 3.98512V3.98512L13 4.76389ZM4 17V7H2V17H4ZM2 17C2 19.3056 4.04181 21 6.33333 21V19C4.94296 19 4 18.0081 4 17H2ZM4 7C4 5.99193 4.94296 5 6.33333 5V3C4.04181 3 2 4.69436 2 7H4ZM18.3133 16.6525L21.7578 12.6525L20.2422 11.3475L16.7978 15.3475L18.3133 16.6525ZM21.7578 11.3475L18.3133 7.34748L16.7978 8.65252L20.2422 12.6525L21.7578 11.3475ZM21 11H10V13H21V11ZM6.33333 21H10.7778V19H6.33333V21ZM15.1111 17V16H13.1111V17H15.1111ZM6.33333 5H10.7778V3H6.33333V5ZM13.1111 7V8H15.1111V7H13.1111ZM10.7778 21C13.0693 21 15.1111 19.3056 15.1111 17H13.1111C13.1111 18.0081 12.1682 19 10.7778 19V21ZM10.7778 5C11.4056 5 11.9625 5.21226 12.3727 5.54266L13.6273 3.98512C12.858 3.36545 11.8574 3 10.7778 3V5ZM12.3727 5.54266C12.8465 5.92434 13.1111 6.4478 13.1111 7H15.1111C15.1111 5.7752 14.5174 4.70208 13.6273 3.98512L12.3727 5.54266Z"
    fill="#26294C" />
</svg>