<svg width="135" height="87" viewBox="0 0 135 87" fill="none" xmlns="http://www.w3.org/2000/svg">
  <rect width="135" height="86.25" rx="43.125" fill="#BEA4FF" />
  <path
    d="M88.8458 16.0702L91.2012 13.1606L93.0717 16.4028L95.8535 13.898L97.1929 17.3911L100.332 15.3528L101.109 19.0137L104.528 17.4912L104.724 21.229L108.339 20.2592L107.946 23.9816L111.669 23.5891L110.699 27.2037L114.437 27.3993L112.914 30.8184L116.575 31.5959L114.537 34.7349L118.03 36.0742L115.525 38.8561L118.767 40.7265L115.858 43.0819L118.767 45.4358L115.525 47.3063L118.03 50.0881L114.537 51.429L116.575 54.5665L112.914 55.3439L114.437 58.7631L110.699 58.9586L111.669 62.5733L107.946 62.1807L108.339 65.9032L104.724 64.9333L104.528 68.6712L101.109 67.1486L100.332 70.8095L97.1929 68.7712L95.8535 72.2643L93.0717 69.7596L91.2012 73.0017L88.8458 70.0921L86.4919 73.0017L84.6215 69.7596L81.8396 72.2643L80.4987 68.7712L77.3613 70.8095L76.5839 67.1486L73.1647 68.6712L72.9692 64.9333L69.3545 65.9032L69.747 62.1807L66.0246 62.5733L66.9929 58.9586L63.2566 58.7631L64.7791 55.3439L61.1182 54.5665L63.1565 51.429L59.6634 50.0881L62.1682 47.3063L58.926 45.4358L61.8356 43.0819L58.926 40.7265L62.1682 38.8561L59.6634 36.0742L63.1565 34.7349L61.1182 31.5959L64.7791 30.8184L63.2566 27.3993L66.9929 27.2037L66.0246 23.5891L69.747 23.9816L69.3545 20.2592L72.9692 21.229L73.1647 17.4912L76.5839 19.0137L77.3613 15.3528L80.4987 17.3911L81.8396 13.898L84.6215 16.4028L86.4919 13.1606L88.8458 16.0702Z"
    fill="#FFECB2" />
  <path
    d="M22.7805 48.5825C22.1108 48.5825 21.5397 48.4101 21.0686 48.0637C20.5975 47.7173 20.2819 47.2647 20.1233 46.7043L18.0651 39.167C17.8896 38.5189 17.9696 38.0001 18.3037 37.6091C18.6393 37.218 19.1735 37.0241 19.9078 37.0241C20.3543 37.0241 20.7253 37.1426 21.0209 37.3781C21.3164 37.6137 21.5027 37.9231 21.5843 38.3065L23.1638 45.3126H23.2362L24.9604 38.6159C25.0882 38.1294 25.3268 37.743 25.6793 37.4551C26.0303 37.1672 26.5014 37.0241 27.091 37.0241C27.6807 37.0241 28.1594 37.1672 28.5274 37.4551C28.8938 37.743 29.1416 38.1294 29.2694 38.6159L31.0167 45.3126H31.0891L32.6686 38.2834C32.7486 37.9 32.9318 37.5952 33.2197 37.3658C33.5076 37.138 33.8586 37.0225 34.2727 37.0225C35.007 37.0225 35.5412 37.215 35.8768 37.5967C36.2125 37.9801 36.291 38.4958 36.1155 39.1439L34.0572 46.6597C33.914 47.2339 33.6061 47.6988 33.135 48.0529C32.6639 48.407 32.0943 48.584 31.4231 48.584C30.7689 48.584 30.1946 48.407 29.6989 48.0529C29.2047 47.6988 28.8845 47.2354 28.7414 46.6597L27.0895 40.2939H27.0171L25.3406 46.6812C25.2129 47.2416 24.9173 47.6973 24.4554 48.0514C23.9921 48.4054 23.4348 48.5825 22.7805 48.5825Z"
    fill="#240668" />
  <path
    d="M41.0708 43.4779C41.1185 44.2446 41.4095 44.8635 41.9452 45.3345C42.4794 45.8056 43.2092 46.0412 44.1359 46.0412C44.5023 46.0412 44.8856 45.9673 45.2844 45.8195C45.6831 45.6717 46.0187 45.4515 46.2896 45.156C46.7361 44.6695 47.2872 44.4493 47.9415 44.4924C48.2771 44.5217 48.5481 44.6064 48.7559 44.7465C48.9637 44.8865 49.1069 45.0559 49.1869 45.2545C49.267 45.4531 49.2793 45.6671 49.2224 45.8949C49.1669 46.1243 49.0422 46.3475 48.8513 46.5692C48.1324 47.3805 47.3827 47.9255 46.6006 48.2041C45.8186 48.4843 44.9811 48.6244 44.0867 48.6244C41.8991 48.6244 40.2318 48.1241 39.0833 47.1219C37.9349 46.1197 37.3591 44.6541 37.3591 42.7236C37.3591 41.7953 37.5069 40.9701 37.8025 40.2481C38.0981 39.5261 38.5214 38.918 39.071 38.4254C39.6222 37.9312 40.2841 37.5525 41.0585 37.2877C41.8329 37.0229 42.6903 36.8828 43.6325 36.8674C45.5153 36.8967 46.9639 37.3862 47.9785 38.3376C48.9914 39.2875 49.538 40.5883 49.618 42.2386C49.6503 42.6066 49.5426 42.9052 49.2947 43.1331C49.0469 43.3625 48.7159 43.4764 48.3017 43.4764H41.0708V43.4779ZM46.0741 41.5767C45.9941 40.9578 45.7354 40.4498 45.2967 40.051C44.8579 39.6539 44.3037 39.4537 43.6325 39.4537C42.9628 39.4537 42.4117 39.6492 41.9806 40.0387C41.5496 40.4298 41.2709 40.9409 41.1432 41.5751H46.0741V41.5767Z"
    fill="#240668" />
  <path
    d="M51.6995 34.7246C51.6995 34.1935 51.8827 33.7701 52.2507 33.4545C52.6171 33.1374 53.0881 32.9789 53.6624 32.9789C54.2212 32.9789 54.6754 33.1374 55.0264 33.4545C55.3774 33.7717 55.5529 34.195 55.5529 34.7246V44.6927C55.5529 45.1638 55.636 45.481 55.8038 45.6426C55.9716 45.8043 56.3103 45.8858 56.8214 45.8858C57.3002 45.8858 57.6358 45.9998 57.8267 46.2291C58.0176 46.4585 58.1146 46.7711 58.1146 47.1682C58.1146 47.4484 58.0499 47.6732 57.9237 47.8425C57.7959 48.0119 57.6281 48.1443 57.4202 48.2397C57.2124 48.3352 56.9815 48.3983 56.7259 48.4275C56.4704 48.4568 56.2225 48.4722 55.9839 48.4722C55.3296 48.4722 54.7385 48.4137 54.212 48.2951C53.6855 48.1766 53.2344 47.978 52.8588 47.6978C52.4831 47.4176 52.1968 47.0389 51.9967 46.5601C51.7965 46.0814 51.698 45.4887 51.698 44.7805V34.7246H51.6995Z"
    fill="#240668" />
  <path
    d="M65.2022 48.6266C63.2224 48.6266 61.6753 48.1263 60.5576 47.1241C59.4399 46.1219 58.8811 44.664 58.8811 42.7474C58.8811 40.8323 59.4399 39.3728 60.5576 38.3706C61.6737 37.3684 63.2147 36.8681 65.1776 36.8681C65.7841 36.8681 66.3661 36.9266 66.9249 37.0451C67.4837 37.1637 67.9933 37.333 68.4567 37.5532C68.9201 37.7749 69.3219 38.0473 69.6652 38.3706C70.0085 38.6955 70.2671 39.0634 70.4426 39.476C70.6658 40.021 70.6535 40.4997 70.4072 40.9123C70.1593 41.3249 69.7006 41.5312 69.0309 41.5312C68.663 41.5312 68.332 41.4619 68.0379 41.3218C67.7423 41.1817 67.5068 40.9724 67.3313 40.6922C67.1235 40.3381 66.8448 40.0548 66.4938 39.8408C66.1428 39.6268 65.7118 39.5206 65.2007 39.5206C64.4817 39.5206 63.8921 39.8039 63.4287 40.372C62.9653 40.94 62.7344 41.7313 62.7344 42.7474C62.7344 43.7634 62.97 44.5532 63.441 45.112C63.9121 45.6724 64.5064 45.9526 65.2238 45.9526C66.2136 45.9526 66.9156 45.5846 67.3313 44.8472C67.4914 44.567 67.7269 44.353 68.0379 44.2068C68.3489 44.059 68.6876 43.9851 69.0555 43.9851C69.7252 43.9851 70.184 44.1914 70.4318 44.604C70.6797 45.0166 70.6905 45.4953 70.4672 46.0403C70.2917 46.4529 70.0316 46.8178 69.6898 47.1349C69.3465 47.452 68.9431 47.7199 68.4813 47.9416C68.0179 48.1633 67.5068 48.3326 66.9495 48.4496C66.3922 48.5666 65.8088 48.6266 65.2022 48.6266Z"
    fill="#240668" />
  <path
    d="M78.2032 36.8681C79.1931 36.8681 80.0829 36.9974 80.8726 37.2545C81.6624 37.5131 82.3367 37.8888 82.8955 38.3814C83.4543 38.8756 83.8854 39.4868 84.1887 40.2165C84.4919 40.9462 84.6443 41.7898 84.6443 42.7474C84.6443 43.6911 84.4919 44.5301 84.1887 45.2675C83.8854 46.0049 83.4543 46.6192 82.8955 47.1133C82.3367 47.6075 81.6624 47.9831 80.8726 48.2402C80.0829 48.4973 79.1931 48.6266 78.2032 48.6266C77.2287 48.6266 76.3435 48.4973 75.546 48.2402C74.747 47.9831 74.0743 47.6075 73.5231 47.1133C72.972 46.6192 72.5456 46.0049 72.2423 45.2675C71.939 44.5301 71.7866 43.6911 71.7866 42.7474C71.7866 41.7898 71.9375 40.9462 72.2423 40.2165C72.5456 39.4868 72.972 38.8756 73.5231 38.3814C74.0743 37.8872 74.7486 37.5116 75.546 37.2545C76.3435 36.9974 77.2287 36.8681 78.2032 36.8681ZM78.2032 45.9526C78.5542 45.9526 78.8929 45.8864 79.2208 45.754C79.5471 45.6216 79.835 45.423 80.0829 45.1567C80.3307 44.8919 80.5293 44.5563 80.6817 44.1514C80.8326 43.7465 80.9096 43.2785 80.9096 42.7474C80.9096 42.2163 80.8341 41.7498 80.6817 41.3434C80.5293 40.9385 80.3307 40.5998 80.0829 40.3273C79.835 40.0548 79.5471 39.8516 79.2208 39.7192C78.8929 39.5868 78.5542 39.5206 78.2032 39.5206C77.4842 39.5206 76.8577 39.79 76.3235 40.3273C75.7893 40.8661 75.5214 41.6728 75.5214 42.7474C75.5214 43.8235 75.7893 44.6255 76.3235 45.1567C76.8577 45.6862 77.4842 45.9526 78.2032 45.9526Z"
    fill="#240668" />
  <path
    d="M86.0793 38.2842C86.0793 37.827 86.2672 37.4852 86.6413 37.2558C87.0154 37.028 87.4433 36.9141 87.9221 36.9141C88.4163 36.9141 88.852 37.028 89.2276 37.2558C89.6017 37.4852 89.7895 37.827 89.7895 38.2842V39.1463H89.8141C90.1328 38.3212 90.5885 37.7315 91.1781 37.3775C91.7677 37.0234 92.5513 36.8463 93.5243 36.8463C94.5296 36.8463 95.347 37.0496 95.9782 37.4544C96.6079 37.8593 97.0589 38.4305 97.3314 39.1679H97.356C97.7224 38.3427 98.2258 37.75 98.8647 37.3882C99.5036 37.028 100.316 36.8463 101.306 36.8463C102.695 36.8463 103.733 37.2081 104.419 37.9301C105.106 38.6522 105.449 39.7067 105.449 41.0907V46.8376C105.449 47.3533 105.269 47.7736 104.91 48.0969C104.552 48.4217 104.084 48.5833 103.509 48.5833C102.935 48.5833 102.476 48.4217 102.133 48.0969C101.79 47.7736 101.619 47.3533 101.619 46.8376V41.842C101.619 41.1492 101.471 40.5965 101.175 40.1839C100.88 39.7714 100.381 39.5651 99.6791 39.5651C99.0094 39.5651 98.5091 39.7975 98.1827 40.2609C97.8548 40.7258 97.6916 41.297 97.6916 41.9744V46.8376C97.6916 47.3533 97.5115 47.7736 97.1528 48.0969C96.7941 48.4217 96.3261 48.5833 95.7519 48.5833C95.1777 48.5833 94.7189 48.4217 94.3756 48.0969C94.0323 47.7736 93.8614 47.3533 93.8614 46.8376V41.842C93.8614 41.1492 93.7059 40.5965 93.395 40.1839C93.084 39.7714 92.5929 39.5651 91.9232 39.5651C91.2366 39.5651 90.7301 39.8006 90.4022 40.2717C90.0743 40.7428 89.9111 41.3324 89.9111 42.0406V46.8376C89.9111 47.3533 89.731 47.7736 89.3723 48.0969C89.0136 48.4217 88.5456 48.5833 87.9714 48.5833C87.3971 48.5833 86.9384 48.4217 86.5951 48.0969C86.2518 47.7736 86.0809 47.3533 86.0809 46.8376V38.2842H86.0793Z"
    fill="#240668" />
  <path
    d="M110.834 43.4779C110.882 44.2446 111.173 44.8635 111.708 45.3345C112.243 45.8056 112.972 46.0412 113.899 46.0412C114.266 46.0412 114.649 45.9673 115.048 45.8195C115.446 45.6717 115.782 45.4515 116.053 45.156C116.499 44.6695 117.05 44.4493 117.705 44.4924C118.04 44.5217 118.311 44.6064 118.519 44.7465C118.727 44.8865 118.87 45.0559 118.95 45.2545C119.03 45.4531 119.043 45.6671 118.986 45.8949C118.93 46.1243 118.805 46.3475 118.615 46.5692C117.896 47.3805 117.146 47.9255 116.364 48.2041C115.582 48.4843 114.744 48.6244 113.85 48.6244C111.662 48.6244 109.995 48.1241 108.847 47.1219C107.698 46.1197 107.122 44.6541 107.122 42.7236C107.122 41.7953 107.27 40.9701 107.566 40.2481C107.861 39.5261 108.285 38.918 108.834 38.4254C109.385 37.9312 110.047 37.5525 110.822 37.2877C111.596 37.0229 112.454 36.8828 113.396 36.8674C115.278 36.8967 116.727 37.3862 117.742 38.3376C118.755 39.2875 119.301 40.5883 119.381 42.2386C119.414 42.6066 119.306 42.9052 119.058 43.1331C118.81 43.3625 118.479 43.4764 118.065 43.4764H110.834V43.4779ZM115.837 41.5767C115.757 40.9578 115.499 40.4498 115.06 40.051C114.621 39.6539 114.067 39.4537 113.396 39.4537C112.726 39.4537 112.175 39.6492 111.744 40.0387C111.313 40.4298 111.034 40.9409 110.906 41.5751H115.837V41.5767Z"
    fill="#240668" />
  <path
    d="M21.7736 68.9766C21.1993 68.9766 20.7406 68.8149 20.3973 68.4901C20.054 68.1668 19.8831 67.7465 19.8831 67.2308V60.003H18.9979C18.6299 60.003 18.3313 59.8967 18.1004 59.6827C17.8694 59.4688 17.7524 59.1855 17.7524 58.8314C17.7524 58.4773 17.8679 58.1987 18.1004 57.9909C18.3313 57.7846 18.6315 57.6814 18.9979 57.6814H19.8831V56.9071C19.8831 56.1558 20.0155 55.5292 20.2787 55.0289C20.542 54.5286 20.9084 54.1345 21.3795 53.8466C21.8505 53.5587 22.4047 53.3709 23.0436 53.2831C23.6825 53.1954 24.3676 53.1877 25.1019 53.2616C25.4206 53.2908 25.7208 53.4125 25.9994 53.6264C26.2781 53.8404 26.4182 54.1391 26.4182 54.5209C26.4182 54.9181 26.3227 55.2275 26.1303 55.4492C25.9379 55.6709 25.5961 55.7956 25.1004 55.8248C24.637 55.8402 24.286 55.9172 24.0474 56.0573C23.8072 56.1974 23.6887 56.5176 23.6887 57.0194V57.683H24.6709C25.0542 57.683 25.3575 57.7907 25.5807 58.0032C25.8039 58.2172 25.9163 58.5004 25.9163 58.8545C25.9163 59.2086 25.8039 59.4888 25.5807 59.6951C25.3575 59.9014 25.0542 60.0045 24.6709 60.0045H23.6887V67.2324C23.6887 67.7481 23.5132 68.1684 23.1622 68.4917C22.8112 68.8149 22.3493 68.9766 21.7736 68.9766Z"
    fill="#240668" />
  <path
    d="M30.4885 69.0203C29.9143 69.0203 29.3708 68.9434 28.8613 68.7879C28.3501 68.6339 27.9037 68.4092 27.5204 68.1136C27.137 67.8195 26.8384 67.4608 26.6228 67.0421C26.4073 66.6218 26.2996 66.1538 26.2996 65.6381C26.2996 64.5328 26.7337 63.6937 27.605 63.118C28.4748 62.5437 29.7311 62.2051 31.3752 62.1019L34.5111 61.9033V61.4399C34.5111 60.895 34.3387 60.4747 33.997 60.1806C33.6537 59.8866 33.1626 59.7388 32.5252 59.7388C32.0141 59.7096 31.543 59.8019 31.1135 60.0144C30.6825 60.2284 30.3392 60.4824 30.0836 60.7764C29.8604 61.0274 29.6171 61.2106 29.3539 61.3291C29.0906 61.4476 28.775 61.4907 28.4086 61.4615C28.0884 61.4322 27.8252 61.3476 27.6189 61.2075C27.4111 61.0674 27.2725 60.898 27.2002 60.6994C27.1278 60.5009 27.117 60.2869 27.1647 60.059C27.2125 59.8312 27.3249 59.6064 27.5004 59.3847C28.1392 58.6335 28.892 58.0916 29.7634 57.7606C30.6332 57.4296 31.6185 57.2633 32.7207 57.2633C34.4603 57.2633 35.8366 57.6359 36.8511 58.3795C37.8641 59.123 38.3722 60.233 38.3722 61.7063V67.5855C38.3722 68.0566 38.1843 68.4076 37.8102 68.6355C37.4346 68.8633 37.0082 68.9788 36.5294 68.9788C36.0506 68.9788 35.6242 68.8649 35.2486 68.6355C34.8729 68.4076 34.6866 68.0582 34.6866 67.5855V67.0329H34.6143C34.4542 67.3577 34.2279 67.641 33.9323 67.8842C33.6367 68.1274 33.3011 68.3337 32.927 68.5031C32.5514 68.6724 32.1573 68.8017 31.7416 68.8895C31.3183 68.9757 30.9041 69.0203 30.4885 69.0203ZM31.8525 66.6326C32.2035 66.6326 32.5391 66.5695 32.8577 66.4448C33.1764 66.3201 33.4597 66.1538 33.7075 65.9475C33.9554 65.7412 34.1509 65.5026 34.2941 65.2286C34.4372 64.9561 34.5096 64.6728 34.5096 64.3773V63.8461L31.9725 64.0001C31.3506 64.0293 30.8826 64.1664 30.5716 64.4096C30.2606 64.6528 30.1052 64.973 30.1052 65.3718C30.1052 65.7997 30.276 66.1153 30.6193 66.3216C30.9626 66.5295 31.3737 66.6326 31.8525 66.6326Z"
    fill="#240668" />
  <path
    d="M42.5303 56.2658C41.8606 56.2658 41.3372 56.0887 40.9616 55.7347C40.5859 55.3806 40.3997 54.9465 40.3997 54.4307C40.3997 53.915 40.5875 53.4809 40.9616 53.1268C41.3357 52.7727 41.8591 52.5957 42.5303 52.5957C43.2015 52.5957 43.7234 52.7727 44.099 53.1268C44.4747 53.4809 44.6625 53.915 44.6625 54.4307C44.6625 54.9465 44.4747 55.3806 44.099 55.7347C43.7234 56.0887 43.2015 56.2658 42.5303 56.2658ZM42.5072 68.9757C41.933 68.9757 41.4742 68.8172 41.1309 68.5C40.7876 68.1829 40.6167 67.7595 40.6167 67.2284V59.1385C40.6167 58.6227 40.7968 58.2071 41.1555 57.8899C41.5142 57.5728 41.9822 57.4142 42.5565 57.4142C43.1307 57.4142 43.5895 57.5728 43.9328 57.8899C44.2761 58.2071 44.4469 58.6227 44.4469 59.1385V67.2284C44.4469 67.7595 44.2638 68.1829 43.8958 68.5C43.5279 68.8172 43.0645 68.9757 42.5072 68.9757Z"
    fill="#240668" />
  <path
    d="M48.5406 57.3047C49.0193 57.3047 49.4458 57.4187 49.8214 57.6465C50.1955 57.8759 50.3833 58.2254 50.3833 58.6964V59.2938H50.431C50.6543 58.6749 51.0453 58.193 51.6041 57.8466C52.163 57.5003 52.8496 57.3494 53.6624 57.394C54.1735 57.4233 54.5245 57.568 54.7154 57.8251C54.9063 58.0837 55.0033 58.4101 55.0033 58.8088C55.0033 59.206 54.8509 59.5462 54.5476 59.8249C54.2443 60.1051 53.8133 60.2298 53.2544 60.2005C52.8234 60.1867 52.437 60.259 52.0937 60.4222C51.7504 60.5838 51.4594 60.7978 51.2193 61.0626C50.9806 61.3274 50.7959 61.6307 50.6681 61.9694C50.5403 62.3081 50.4772 62.6544 50.4772 63.0085V67.2298C50.4772 67.7455 50.3017 68.1658 49.9507 68.4891C49.5997 68.8139 49.1363 68.9755 48.5621 68.9755C47.9879 68.9755 47.5291 68.8139 47.1858 68.4891C46.8425 68.1658 46.6716 67.7455 46.6716 67.2298V58.698C46.6716 58.2269 46.8594 57.8774 47.2335 57.6481C47.6107 57.4187 48.0448 57.3047 48.5406 57.3047Z"
    fill="#240668" />
  <path
    d="M31.3323 13.1249C33.8308 13.1249 35.8568 15.0446 35.8568 17.4124V24.1507C35.8568 25.7471 36.2478 26.9479 37.0299 27.7546C37.8135 28.5613 38.9003 28.9662 40.292 28.9662C41.6822 28.9662 42.769 28.5782 43.5526 27.7977C44.3362 27.0172 44.7288 25.8487 44.7288 24.2908V14.9384C44.7288 13.9378 45.5848 13.1249 46.6424 13.1249H47.3398C48.3958 13.1249 49.2533 13.9362 49.2533 14.9384V24.1245C49.2533 25.6085 49.0409 26.8986 48.6206 27.9917C48.1988 29.0878 47.5969 30.0007 46.8148 30.7335C46.0312 31.4693 45.0829 32.0143 43.9668 32.3776C42.8506 32.7379 41.6052 32.9195 40.2351 32.9195C37.4748 32.9195 35.2995 32.196 33.7123 30.7504C32.1266 29.3033 31.3353 27.1403 31.3353 24.2615V19.3382C31.3353 17.905 30.1099 16.7442 28.5981 16.7442H27.5682C26.7046 16.7442 25.9071 16.9028 25.1743 17.2184C24.4385 17.534 23.8088 17.9696 23.2777 18.5269C22.7497 19.0842 22.3371 19.7293 22.0446 20.4621C21.749 21.1949 21.6043 21.98 21.6043 22.8144V22.8714C21.6043 23.7058 21.749 24.4955 22.0446 25.2375C22.3371 25.9811 22.745 26.6292 23.2638 27.1865C23.7826 27.7438 24.4108 28.1856 25.1435 28.5105C25.8794 28.8353 26.6861 28.9969 27.5682 28.9969C28.1517 28.9969 28.689 28.9446 29.1816 28.843C30.0406 28.669 30.9074 29.1047 31.2784 29.8575L31.4446 30.1962C31.9557 31.2338 31.3307 32.4715 30.1484 32.7055C30.1407 32.7071 30.1315 32.7102 30.1253 32.7117C29.3202 32.8703 28.4211 32.9488 27.422 32.9488C25.9133 32.9488 24.5139 32.6871 23.2223 32.1683C21.9276 31.6495 20.8115 30.9398 19.8708 30.0392C18.9302 29.1386 18.1974 28.0748 17.6694 26.8509C17.1383 25.627 16.875 24.3185 16.875 22.9268V22.8698C16.875 21.4781 17.1398 20.1742 17.6694 18.9595C18.1974 17.7433 18.9302 16.6749 19.8708 15.7574C20.7961 14.8537 21.9014 14.1256 23.1761 13.5683C23.4671 13.442 23.7703 13.342 24.0782 13.2619C24.6047 13.1249 24.6586 13.1511 25.1051 13.1249H30.5194H31.3323Z"
    fill="#DB28A2" />
  <path d="M65.6393 51.17H57.9373V72.9597H65.6393V51.17Z" fill="#DB28A2" />
  <path d="M73.2457 51.17H65.5437V72.9597H73.2457V51.17Z" fill="white" />
  <path d="M81.0033 51.17H73.3013V72.9597H81.0033V51.17Z" fill="#DB28A2" />
  <path d="M88.6114 51.17H80.9094V72.9597H88.6114V51.17Z" fill="white" />
  <path d="M96.3011 51.17H88.5991V72.9597H96.3011V51.17Z" fill="#DB28A2" />
  <path d="M103.909 51.17H96.2073V72.9597H103.909V51.17Z" fill="white" />
  <path d="M111.667 51.17H103.965V72.9597H111.667V51.17Z" fill="#DB28A2" />
  <path d="M119.275 51.17H111.573V72.9597H119.275V51.17Z" fill="white" />
</svg>