<svg
      width="264"
      height="315"
      viewBox="0 0 264 315"
      fill="none"
      xmlns="http://www.w3.org/2000/svg"
    >
      <mask id="path-1-inside-1_431_3728" fill="white">
        <path
          fill-rule="evenodd"
          clip-rule="evenodd"
          d="M202.237 35.3096H61.0002V119.158H61.4694L113.729 147.58V167.039L61.4693 195.461H61L61 279.31L202.237 279.31L202.237 195.461H201.768L149.509 167.039V147.58L201.768 119.158H202.237V35.3096Z"
        />
      </mask>
      <path
        d="M61.0002 35.3096V29.3096H55.0002V35.3096H61.0002ZM202.237 35.3096H208.237V29.3096H202.237V35.3096ZM61.0002 119.158H55.0002V125.158H61.0002V119.158ZM61.4694 119.158L64.336 113.887L62.9954 113.158H61.4694V119.158ZM113.729 147.58H119.729V144.013L116.595 142.309L113.729 147.58ZM113.729 167.039L116.595 172.31L119.729 170.606V167.039H113.729ZM61.4693 195.461V201.461H62.9953L64.3359 200.732L61.4693 195.461ZM61 195.461V189.461H55L55 195.461H61ZM61 279.31H55L55 285.31H61L61 279.31ZM202.237 279.31V285.31H208.237V279.31H202.237ZM202.237 195.461H208.237V189.461H202.237V195.461ZM201.768 195.461L198.902 200.732L200.242 201.461H201.768V195.461ZM149.509 167.039H143.509V170.606L146.642 172.31L149.509 167.039ZM149.509 147.58L146.642 142.309L143.509 144.013V147.58H149.509ZM201.768 119.158V113.158H200.242L198.902 113.887L201.768 119.158ZM202.237 119.158V125.158H208.237V119.158H202.237ZM61.0002 41.3096H202.237V29.3096H61.0002V41.3096ZM67.0002 119.158V35.3096H55.0002V119.158H67.0002ZM61.4694 113.158H61.0002V125.158H61.4694V113.158ZM116.595 142.309L64.336 113.887L58.6027 124.429L110.862 152.851L116.595 142.309ZM119.729 167.039V147.58H107.729V167.039H119.729ZM64.3359 200.732L116.595 172.31L110.862 161.768L58.6026 190.19L64.3359 200.732ZM61 201.461H61.4693V189.461H61V201.461ZM67 279.31L67 195.461H55L55 279.31H67ZM202.237 273.31L61 273.31L61 285.31L202.237 285.31V273.31ZM196.237 195.461L196.237 279.31H208.237L208.237 195.461H196.237ZM201.768 201.461H202.237V189.461H201.768V201.461ZM146.642 172.31L198.902 200.732L204.635 190.19L152.375 161.768L146.642 172.31ZM143.509 147.58V167.039H155.509V147.58H143.509ZM198.902 113.887L146.642 142.309L152.375 152.851L204.635 124.429L198.902 113.887ZM202.237 113.158H201.768V125.158H202.237V113.158ZM196.237 35.3096V119.158H208.237V35.3096H196.237Z"
        fill="#240668"
        mask="url(#path-1-inside-1_431_3728)"
      />
      <path
        d="M131.619 236.127L189.514 268.514L73.723 268.514L131.619 236.127Z"
        fill="rgb(174, 28, 93)"
      />
      <path
        fill-rule="evenodd"
        clip-rule="evenodd"
        d="M73.7112 94.0039H189.055V111.088H189.514L136.326 140.842V176.176H127.852V141.368L73.9094 111.193H73.7112V94.0039Z"
        fill="rgb(174, 28, 93)"
      />
      <rect
        x="127.382"
        y="179.528"
        width="8.47423"
        height="3.7732"
        fill="rgb(174, 28, 93)"
      >
        <animate
          attributeName="fill-opacity"
          values="0;1"
          dur="1s"
          id="sand-1"
          begin="1s"
          repeatCount="indefinite"
        />
      </rect>
      <rect
        x="127.382"
        y="186.655"
        width="8.47423"
        height="3.7732"
        fill="rgb(174, 28, 93)"
      >
        <animate
          attributeName="fill-opacity"
          values="0;1"
          dur="1s"
          id="sand-2"
          begin="1.1s"
          repeatCount="indefinite"
        />
      </rect>
      <rect
        x="127.382"
        y="193.782"
        width="8.47423"
        height="3.7732"
        fill="rgb(174, 28, 93)"
      >
        <animate
          attributeName="fill-opacity"
          values="0;1"
          dur="1s"
          id="sand-3"
          begin="1.2s"
          repeatCount="indefinite"
        />
      </rect>
    </svg>