<svg width="24" height="24" viewBox="0 0 24 24" fill="none" xmlns="http://www.w3.org/2000/svg">
  <path
    d="M3 6C3 4.89543 3.89543 4 5 4H19C20.1046 4 21 4.89543 21 6V14C21 15.1046 20.1046 16 19 16H14L9 21V16H5C3.89543 16 3 15.1046 3 14V6Z"
    stroke="#26294C" stroke-width="2" stroke-linecap="round" stroke-linejoin="round" />
  <path
    d="M11.1164 9.12364V7.23636C11.1164 6.97455 11.1964 6.76364 11.3564 6.60364C11.5237 6.44364 11.7419 6.36364 12.011 6.36364C12.2728 6.36364 12.4837 6.44364 12.6437 6.60364C12.8037 6.76364 12.8837 6.97455 12.8837 7.23636V9.12364L12.8073 10.6618C12.7928 10.8873 12.7128 11.0691 12.5673 11.2073C12.4219 11.3455 12.2328 11.4145 12 11.4145C11.7673 11.4145 11.5782 11.3455 11.4328 11.2073C11.2873 11.0691 11.2073 10.8873 11.1928 10.6618L11.1164 9.12364ZM12.011 12.0582C12.3382 12.0582 12.5928 12.1527 12.7746 12.3418C12.9564 12.5309 13.0473 12.76 13.0473 13.0291C13.0473 13.3055 12.9564 13.5382 12.7746 13.7273C12.5928 13.9091 12.3382 14 12.011 14C11.6764 14 11.4182 13.9091 11.2364 13.7273C11.0546 13.5382 10.9637 13.3055 10.9637 13.0291C10.9637 12.76 11.0546 12.5309 11.2364 12.3418C11.4182 12.1527 11.6764 12.0582 12.011 12.0582Z"
    fill="#26294C" />
</svg>