<svg width="408" height="495" viewBox="0 0 408 495" fill="none" xmlns="http://www.w3.org/2000/svg">
<path fill-rule="evenodd" clip-rule="evenodd" d="M145.054 217.877C140.958 172.74 20.7288 128.949 20.729 55.6361C20.7291 -17.6767 -21.5133 -64.6542 20.7292 -107.613C61.2077 -148.778 375.014 -125.825 419.33 -90.017C463.82 -54.069 447.905 26.3859 470.442 83.3079C485.968 122.521 523.385 146.852 529.905 189.265C537.038 235.665 532.768 287.61 507.539 324.62C482.738 361.001 437.339 362.292 400.099 379.682C359.83 398.487 317.762 418.977 280.241 393.547C239.513 365.944 256.303 319.477 230.874 273.615C208.947 234.066 150.113 273.615 145.054 217.877Z" fill="url(#paint0_linear_1473_5892)"/>
<path fill-rule="evenodd" clip-rule="evenodd" d="M416.782 12.0423C461.666 16.0739 561.267 -12.0987 598.61 13.4241C652.08 49.9687 657.849 141.937 691.941 196.236C724.609 248.267 709.737 328.346 666.453 370.06C622.999 411.937 547.336 379.361 487.486 393.274C446.255 402.859 415.478 439.192 372.804 438.325C326.118 437.376 276.144 422.911 244.686 388.34C213.763 354.357 220.988 304.464 210.952 260.457C200.099 212.872 187.936 163.001 219.806 126.762C254.4 87.4255 296.679 114.549 346.259 95.388C389.014 78.8646 370.422 7.87806 416.782 12.0423Z" fill="url(#paint1_linear_1473_5892)"/>
<defs>
<linearGradient id="paint0_linear_1473_5892" x1="345.093" y1="436.144" x2="335.783" y2="-116.74" gradientUnits="userSpaceOnUse">
<stop stop-color="#DE7D78"/>
<stop offset="1" stop-color="#C7BCEC"/>
</linearGradient>
<linearGradient id="paint1_linear_1473_5892" x1="166.047" y1="189.653" x2="540.674" y2="350.088" gradientUnits="userSpaceOnUse">
<stop stop-color="#E2608C"/>
<stop offset="1" stop-color="#E8CB63"/>
</linearGradient>
</defs>
</svg>
