<svg width="56" height="50" viewBox="0 0 56 50" fill="none" xmlns="http://www.w3.org/2000/svg">
<path fill-rule="evenodd" clip-rule="evenodd" d="M7 7.5C3.13401 7.5 0 10.634 0 14.5V42.5C0 46.366 3.13401 49.5 7 49.5H49C52.866 49.5 56 46.366 56 42.5V14.5C56 10.634 52.866 7.5 49 7.5H43.4497C42.5215 7.5 41.6313 7.13125 40.9749 6.47487L37.0503 2.55025C35.7375 1.2375 33.957 0.5 32.1005 0.5H23.8995C22.043 0.5 20.2625 1.2375 18.9497 2.55025L15.0251 6.47487C14.3687 7.13125 13.4785 7.5 12.5503 7.5H7ZM28 39C33.799 39 38.5 34.299 38.5 28.5C38.5 22.701 33.799 18 28 18C22.201 18 17.5 22.701 17.5 28.5C17.5 34.299 22.201 39 28 39Z" fill="#26294C"/>
</svg>
