<svg width="305" height="304" viewBox="0 0 305 304" fill="none" xmlns="http://www.w3.org/2000/svg">
<path fill-rule="evenodd" clip-rule="evenodd" d="M292.039 0H287.161C287.252 0.51964 287.3 1.05429 287.3 1.60004C287.3 6.68106 283.181 10.8 278.1 10.8C273.019 10.8 268.9 6.68106 268.9 1.60004C268.9 1.05429 268.948 0.51964 269.039 0H264.161C264.252 0.51964 264.3 1.05429 264.3 1.60004C264.3 6.68106 260.181 10.8 255.1 10.8C250.019 10.8 245.9 6.68106 245.9 1.60004C245.9 1.05429 245.948 0.51964 246.039 0H241.161C241.252 0.51964 241.3 1.05429 241.3 1.60004C241.3 6.68106 237.181 10.8 232.1 10.8C227.019 10.8 222.9 6.68106 222.9 1.60004C222.9 1.05429 222.948 0.51964 223.039 0H218.161C218.252 0.51964 218.3 1.05429 218.3 1.60004C218.3 6.68106 214.181 10.8 209.1 10.8C204.019 10.8 199.9 6.68106 199.9 1.60004C199.9 1.05429 199.948 0.51964 200.039 0H195.161C195.252 0.51964 195.3 1.05429 195.3 1.60004C195.3 6.68106 191.181 10.8 186.1 10.8C181.019 10.8 176.9 6.68106 176.9 1.60004C176.9 1.05429 176.948 0.51964 177.039 0H172.161C172.252 0.51964 172.3 1.05429 172.3 1.60004C172.3 6.68106 168.181 10.8 163.1 10.8C158.019 10.8 153.9 6.68106 153.9 1.60004C153.9 1.05429 153.948 0.51964 154.039 0H149.161C149.252 0.51964 149.3 1.05429 149.3 1.60004C149.3 6.68106 145.181 10.8 140.1 10.8C135.019 10.8 130.9 6.68106 130.9 1.60004C130.9 1.05429 130.948 0.51964 131.039 0H126.161C126.252 0.51964 126.3 1.05429 126.3 1.60004C126.3 6.68106 122.181 10.8 117.1 10.8C112.019 10.8 107.9 6.68106 107.9 1.60004C107.9 1.05429 107.948 0.51964 108.039 0H103.161C103.252 0.51964 103.3 1.05429 103.3 1.60004C103.3 6.68106 99.181 10.8 94.1 10.8C89.019 10.8 84.9 6.68106 84.9 1.60004C84.9 1.05429 84.9475 0.51964 85.0387 0H80.1614C80.2525 0.51964 80.3 1.05429 80.3 1.60004C80.3 6.68106 76.181 10.8 71.1 10.8C66.019 10.8 61.9 6.68106 61.9 1.60004C61.9 1.05429 61.9475 0.51964 62.0387 0H57.1614C57.2525 0.51964 57.3 1.05429 57.3 1.60004C57.3 6.68106 53.181 10.8 48.1 10.8C43.019 10.8 38.9 6.68106 38.9 1.60004C38.9 1.05429 38.9475 0.51964 39.0386 0H34.1614C34.2525 0.51964 34.3 1.05429 34.3 1.60004C34.3 6.68106 30.181 10.8 25.1 10.8C20.019 10.8 15.9 6.68106 15.9 1.60004C15.9 1.05429 15.9475 0.51964 16.0386 0H11.1614C11.2525 0.519625 11.3 1.05426 11.3 1.59999C11.3 6.68101 7.18102 10.8 2.1 10.8C1.55427 10.8 1.01963 10.7525 0.500001 10.6614L0.5 11.3999C4.69736 11.3999 8.1 14.8026 8.1 18.9999C8.1 23.1973 4.69736 26.5999 0.5 26.5999V30.3999C4.69736 30.3999 8.1 33.8026 8.1 37.9999C8.1 42.1973 4.69736 45.5999 0.5 45.5999V49.3999C4.69736 49.3999 8.1 52.8026 8.1 56.9999C8.1 61.1973 4.69736 64.5999 0.5 64.5999V68.3999C4.69736 68.3999 8.1 71.8026 8.1 75.9999C8.1 80.1973 4.69736 83.5999 0.5 83.5999V87.3999C4.69736 87.3999 8.1 90.8026 8.1 94.9999C8.1 99.1973 4.69736 102.6 0.5 102.6V106.4C4.69736 106.4 8.1 109.803 8.1 114C8.1 118.197 4.69736 121.6 0.5 121.6V125.4C4.69736 125.4 8.1 128.803 8.1 133C8.1 137.197 4.69736 140.6 0.5 140.6V144.4C4.69736 144.4 8.1 147.803 8.1 152C8.1 156.197 4.69736 159.6 0.5 159.6V163.4C4.69736 163.4 8.1 166.803 8.1 171C8.1 175.197 4.69736 178.6 0.5 178.6V182.4C4.69736 182.4 8.1 185.803 8.1 190C8.1 194.197 4.69736 197.6 0.5 197.6V201.4C4.69736 201.4 8.1 204.803 8.1 209C8.1 213.197 4.69736 216.6 0.5 216.6V220.4C4.69736 220.4 8.1 223.803 8.1 228C8.1 232.197 4.69736 235.6 0.5 235.6V239.4C4.69736 239.4 8.1 242.803 8.1 247C8.1 251.197 4.69736 254.6 0.5 254.6V258.4C4.69736 258.4 8.1 261.803 8.1 266C8.1 270.197 4.69736 273.6 0.5 273.6V277.4C4.69736 277.4 8.1 280.802 8.1 285C8.1 289.197 4.69736 292.6 0.5 292.6V296.4C3.64802 296.4 6.34901 298.314 7.50275 301.041C7.88734 301.951 8.1 302.95 8.1 304V304L11.9 304C11.9 299.803 15.3026 296.4 19.5 296.4C23.6974 296.4 27.1 299.803 27.1 304H30.9C30.9 299.803 34.3026 296.4 38.5 296.4C42.6973 296.4 46.1 299.803 46.1 304H49.9C49.9 299.803 53.3026 296.4 57.5 296.4C61.6973 296.4 65.1 299.803 65.1 304H68.9C68.9 299.803 72.3026 296.4 76.5 296.4C80.6973 296.4 84.1 299.803 84.1 304H87.9C87.9 299.803 91.3026 296.4 95.5 296.4C99.6973 296.4 103.1 299.803 103.1 304H106.9C106.9 299.803 110.303 296.4 114.5 296.4C118.697 296.4 122.1 299.803 122.1 304H125.9C125.9 299.803 129.303 296.4 133.5 296.4C137.697 296.4 141.1 299.803 141.1 304H144.9C144.9 299.803 148.303 296.4 152.5 296.4C156.697 296.4 160.1 299.803 160.1 304H163.9C163.9 299.803 167.303 296.4 171.5 296.4C175.697 296.4 179.1 299.803 179.1 304H182.9C182.9 299.803 186.303 296.4 190.5 296.4C194.697 296.4 198.1 299.803 198.1 304H201.9C201.9 299.803 205.303 296.4 209.5 296.4C213.697 296.4 217.1 299.803 217.1 304H220.9C220.9 299.803 224.303 296.4 228.5 296.4C232.697 296.4 236.1 299.803 236.1 304H239.9C239.9 299.803 243.303 296.4 247.5 296.4C251.697 296.4 255.1 299.803 255.1 304H258.9C258.9 299.803 262.303 296.4 266.5 296.4C270.697 296.4 274.1 299.803 274.1 304H277.9C277.9 299.803 281.303 296.4 285.5 296.4C289.697 296.4 293.1 299.803 293.1 304L296.9 304C296.9 304 296.9 304 296.9 304C296.9 302.586 297.286 301.262 297.958 300.128C299.282 297.896 301.716 296.4 304.5 296.4V292.6C300.303 292.6 296.9 289.197 296.9 285C296.9 280.802 300.303 277.4 304.5 277.4V273.6C300.303 273.6 296.9 270.197 296.9 266C296.9 261.802 300.303 258.4 304.5 258.4V254.6C300.303 254.6 296.9 251.197 296.9 247C296.9 242.802 300.303 239.4 304.5 239.4V235.6C300.303 235.6 296.9 232.197 296.9 228C296.9 223.802 300.303 220.4 304.5 220.4V216.6C300.303 216.6 296.9 213.197 296.9 209C296.9 204.802 300.303 201.4 304.5 201.4V197.6C300.303 197.6 296.9 194.197 296.9 190C296.9 185.802 300.303 182.4 304.5 182.4V178.6C300.303 178.6 296.9 175.197 296.9 171C296.9 166.802 300.303 163.4 304.5 163.4V159.6C300.303 159.6 296.9 156.197 296.9 152C296.9 147.802 300.303 144.4 304.5 144.4V140.6C300.303 140.6 296.9 137.197 296.9 133C296.9 128.802 300.303 125.4 304.5 125.4V121.6C300.303 121.6 296.9 118.197 296.9 114C296.9 109.802 300.303 106.4 304.5 106.4V102.6C300.303 102.6 296.9 99.1972 296.9 94.9998C296.9 90.8025 300.303 87.3998 304.5 87.3998V83.5998C300.303 83.5998 296.9 80.1972 296.9 75.9998C296.9 71.8025 300.303 68.3998 304.5 68.3998V64.5998C300.303 64.5998 296.9 61.1972 296.9 56.9998C296.9 52.8025 300.303 49.3998 304.5 49.3998V45.5998C300.303 45.5998 296.9 42.1972 296.9 37.9998C296.9 33.8025 300.303 30.3998 304.5 30.3998V26.5998C300.303 26.5998 296.9 23.1972 296.9 18.9998C296.9 14.8025 300.303 11.3998 304.5 11.3998V10.1514C303.448 10.5699 302.301 10.8 301.1 10.8C296.019 10.8 291.9 6.68106 291.9 1.60004C291.9 1.05429 291.948 0.51964 292.039 0Z" fill="#E6E7EA"/>
</svg>
