<svg width="30" height="34" viewBox="0 0 30 34" fill="none" xmlns="http://www.w3.org/2000/svg">
<path d="M24.4281 23.7614C22.6302 25.5594 18.5724 29.6171 16.4134 31.7761C15.6324 32.5572 14.3685 32.558 13.5875 31.777C11.4638 29.6533 7.49328 25.6828 5.57193 23.7614C0.364939 18.5544 0.364939 10.1122 5.57193 4.90524C10.7789 -0.301748 19.2211 -0.301748 24.4281 4.90524C29.6351 10.1122 29.6351 18.5544 24.4281 23.7614Z" stroke="#26294C" stroke-width="2" stroke-linecap="round" stroke-linejoin="round"/>
<path d="M20 14.3333C20 17.0948 17.7614 19.3333 15 19.3333C12.2386 19.3333 10 17.0948 10 14.3333C10 11.5719 12.2386 9.33333 15 9.33333C17.7614 9.33333 20 11.5719 20 14.3333Z" stroke="#26294C" stroke-width="2" stroke-linecap="round" stroke-linejoin="round"/>
</svg>
