<svg width="1440" height="390" viewBox="0 0 1440 390" fill="none" xmlns="http://www.w3.org/2000/svg">
  <path fill-rule="evenodd" clip-rule="evenodd"
    d="M723.356 528.653C695.991 586.801 607.763 523.893 557.642 558.856C518.828 585.932 534.661 685.782 491.343 690.499C442.028 695.871 444.385 596.509 401.433 575.869C372.175 561.81 330.37 615.839 302.209 599.617C275.679 584.334 281.396 537.393 275.969 503.594C271.357 474.877 265.298 445.538 272.688 415.769C279.663 387.673 300.252 365.596 316.239 341.378C329.993 320.542 272.977 308.129 280.336 284.241C300.168 219.864 305.693 214.448 361.51 185.501C412.599 159.006 435.113 199.429 475.01 233.752C494.548 250.559 538.301 230.126 563.841 233.752C608.874 240.145 728.749 298.959 750.51 341.379C771.117 381.546 723.348 357.7 727.503 405.733C732.747 466.351 750.543 470.881 723.356 528.653Z"
    fill="url(#paint0_linear_1282_5800)" />
  <path fill-rule="evenodd" clip-rule="evenodd"
    d="M898.011 231.202C862.327 259.144 748.053 201.575 694.653 251.807C641.253 302.038 578.092 303.457 575.745 363.659C573.495 421.348 805.223 634.194 861.669 641.939C918.336 649.715 966.034 582.997 1022.94 560.412C1062.14 544.853 1105.5 555.437 1140.86 531.126C1179.54 504.53 1214.45 465.828 1224.12 422.094C1233.63 379.103 1203.46 345.15 1190.61 306.109C1176.72 263.894 1162.82 219.213 1118.59 209.307C1070.58 198.554 1048.24 242.621 997.41 255.522C953.58 266.648 942.075 196.696 898.011 231.202Z"
    fill="url(#paint1_linear_1282_5800)" />
  <path fill-rule="evenodd" clip-rule="evenodd"
    d="M1408.36 71.2161C1454.97 75.2603 1569.6 250.669 1608.25 277.849C1663.59 316.766 1600.16 116.16 1635.27 174.273C1668.92 229.959 1653.01 316.08 1607.81 361.168C1562.43 406.432 1484.01 371.92 1421.75 387.249C1378.86 397.809 1346.68 437.037 1302.35 436.378C1253.85 435.657 1202.02 420.437 1169.53 383.5C1137.6 347.191 1002.9 431.798 992.72 384.587C981.714 333.538 1081.91 242.133 1115.22 202.999C1151.39 160.521 1235.3 170.745 1286.92 149.844C1331.43 131.82 1360.22 67.0388 1408.36 71.2161Z"
    fill="url(#paint2_linear_1282_5800)" />
  <path fill-rule="evenodd" clip-rule="evenodd"
    d="M348.197 327.149C330.23 393.092 244.847 348.181 204.095 395.382C172.536 431.935 197.569 531.079 159.553 545.647C116.272 562.232 107.474 459.51 67.0014 447.917C39.4328 440.02 8.16896 504.965 -18.6606 494.597C-43.9368 484.829 -43.9984 435.267 -52.5324 401.723C-59.7834 373.221 -68.3911 344.406 -65.0813 312.13C-61.9576 281.669 -46.063 254.346 -34.4973 225.852C-24.5464 201.337 -76.6269 201.359 -72.7002 175.139C-62.1179 104.48 -195.85 259.371 -149.371 217.08C-106.83 178.371 67.1987 30.8942 106.454 57.2456C125.677 70.1502 167.613 126.121 190.729 124.122C231.49 120.596 290.583 80.9851 314.593 119.733C337.328 156.424 415.521 252.482 424.484 300.952C435.796 362.121 366.047 261.633 348.197 327.149Z"
    fill="url(#paint3_linear_1282_5800)" />
  <defs>
    <linearGradient id="paint0_linear_1282_5800" x1="624.417" y1="168.387" x2="533.51" y2="463"
      gradientUnits="userSpaceOnUse">
      <stop stop-color="#E0E3AB" />
      <stop offset="1" stop-color="#3994AA" />
    </linearGradient>
    <linearGradient id="paint1_linear_1282_5800" x1="1194.05" y1="227.358" x2="784.961" y2="599.394"
      gradientUnits="userSpaceOnUse">
      <stop stop-color="#DE7D78" />
      <stop offset="1" stop-color="#C7BCEC" />
    </linearGradient>
    <linearGradient id="paint2_linear_1282_5800" x1="1088.95" y1="170.562" x2="1479.92" y2="334.125"
      gradientUnits="userSpaceOnUse">
      <stop stop-color="#E2608C" />
      <stop offset="1" stop-color="#E8CB63" />
    </linearGradient>
    <linearGradient id="paint3_linear_1282_5800" x1="-54.3205" y1="-54.0873" x2="459.808" y2="337.229"
      gradientUnits="userSpaceOnUse">
      <stop stop-color="#3D66A3" />
      <stop offset="0.255208" stop-color="#40AAC4" />
      <stop offset="0.8125" stop-color="#A1A741" />
    </linearGradient>
  </defs>
</svg>