<svg width="238" height="303" viewBox="0 0 238 303" fill="none" xmlns="http://www.w3.org/2000/svg">
  <path fill-rule="evenodd" clip-rule="evenodd"
    d="M273.791 162.757C255.325 161.459 228.331 212.599 198.858 207.492C169.384 202.385 147.2 218.153 133.228 196.121C119.84 175.008 130.936 112.47 148.792 94.9897C166.719 77.4409 175.496 77.1509 200.14 70.9579C217.117 66.6916 240.544 8.06332 258.104 8.07892C277.315 8.09601 332.104 -7.13827 345.013 6.81123C357.702 20.5237 354.675 41.0761 358.758 59.0727C363.173 78.5325 368.125 98.9209 354.972 114.061C340.694 130.496 323.325 119.691 302.901 127.958C285.289 135.087 296.594 164.359 273.791 162.757Z"
    fill="url(#paint0_linear_33_1144)" />
  <path fill-rule="evenodd" clip-rule="evenodd"
    d="M146.356 335.107C170.926 346.593 180.892 301.815 206.107 299.477C225.634 297.667 248.34 334.638 263.08 324.286C279.861 312.501 251.648 280.683 259.262 262.147C264.448 249.52 292.357 255.695 296.604 242.663C300.606 230.385 285.85 216.618 278.185 204.084C271.672 193.435 265.437 182.186 254.911 174.488C244.977 167.223 256.237 165.154 244.58 161.63C234.551 158.599 225.051 139.398 216.161 133.613C192.205 118.024 196.675 118.882 171.357 124.75C148.183 130.12 146.356 150.13 132.021 168.741C101.58 187.63 63.9984 179.433 57.08 187.63C23.58 187.63 -3.40313 216.965 1.57995 236.8C6.29847 255.582 99.0767 279.249 111.073 296.084C126.212 317.329 121.946 323.696 146.356 335.107Z"
    fill="url(#paint1_linear_33_1144)" />
  <defs>
    <linearGradient id="paint0_linear_33_1144" x1="253.792" y1="171.358" x2="201.727" y2="42.3163"
      gradientUnits="userSpaceOnUse">
      <stop stop-color="#DE7D78" />
      <stop offset="1" stop-color="#C7BCEC" />
    </linearGradient>
    <linearGradient id="paint1_linear_33_1144" x1="95.8194" y1="181.367" x2="148.89" y2="278.039"
      gradientUnits="userSpaceOnUse">
      <stop stop-color="#E0E3AB" />
      <stop offset="1" stop-color="#3994AA" />
    </linearGradient>
  </defs>
</svg>