<svg width="376" height="708" viewBox="0 0 376 708" fill="none" xmlns="http://www.w3.org/2000/svg">
  <path fill-rule="evenodd" clip-rule="evenodd"
    d="M119.561 722.829C40.473 770.071 -17.4163 619.285 -105.956 619.212C-174.523 619.155 -233.85 753.42 -290.299 722.489C-354.564 687.274 -273.477 568.986 -309.52 507.667C-334.072 465.898 -427.497 495.94 -449.01 452.48C-469.277 411.537 -425.365 359.549 -405.366 314.043C-388.373 275.379 -372.655 234.737 -340.223 204.951C-309.615 176.84 -267.171 167.532 -228.644 151.739C-195.496 138.151 -255.137 74.8943 -227.374 52.2016C-152.553 -8.95389 -167.584 -4.59119 -76.8446 7.58326C6.20763 18.7263 60.7894 71.092 82.3423 146.39C92.8969 183.264 129.275 204.909 157.513 230.902C207.304 276.735 288.601 352.706 281.7 422.466C275.167 488.522 254.125 515.877 221.372 577.537C180.038 655.354 198.137 675.892 119.561 722.829Z"
    fill="url(#paint0_linear_0_1)" />
  <path fill-rule="evenodd" clip-rule="evenodd"
    d="M321.321 826.981C278.182 874.616 212.145 788.704 154.004 807.524C108.98 822.097 94.9922 922.222 52.1826 914.097C3.44585 904.846 34.6894 810.495 -0.372665 778.222C-24.256 756.239 -80.0053 795.721 -102.208 771.988C-123.125 749.63 -103.961 706.399 -99.2917 672.487C-95.324 643.674 -92.5605 613.844 -76.8065 587.525C-61.9382 562.687 -35.8039 547.578 -13.4471 529.078C5.78828 513.161 -45.1257 484.654 -31.1177 463.952C6.63318 408.161 -2.42386 414.207 59.4101 402.804C116.006 392.367 161.574 414.856 189.722 459.324C203.506 481.101 231.413 487.452 254.783 498.371C295.992 517.625 363.487 549.802 371.926 596.725C379.917 641.157 371.188 663.464 361.149 710.62C348.48 770.13 364.18 779.655 321.321 826.981Z"
    fill="url(#paint1_linear_0_1)" />
  <defs>
    <linearGradient id="paint0_linear_0_1" x1="282.715" y1="203.017" x2="-356.873" y2="592.986"
      gradientUnits="userSpaceOnUse">
      <stop stop-color="#3D66A3" />
      <stop offset="0.255208" stop-color="#40AAC4" />
      <stop offset="0.8125" stop-color="#A1A741" />
    </linearGradient>
    <linearGradient id="paint1_linear_0_1" x1="331.795" y1="453.523" x2="-15.5983" y2="843.904"
      gradientUnits="userSpaceOnUse">
      <stop stop-color="#E0E3AB" />
      <stop offset="1" stop-color="#3994AA" />
    </linearGradient>
  </defs>
</svg>