<svg width="375" height="216" viewBox="0 0 375 216" fill="none" xmlns="http://www.w3.org/2000/svg">
  <path fill-rule="evenodd" clip-rule="evenodd"
    d="M277.546 229.287C266.16 253.481 229.449 227.307 208.595 241.854C192.446 253.12 199.033 294.665 181.01 296.628C160.49 298.863 161.471 257.521 143.6 248.933C131.426 243.083 114.032 265.564 102.315 258.814C91.276 252.455 93.6547 232.924 91.3966 218.861C89.4779 206.912 86.9566 194.705 90.0315 182.318C92.9336 170.628 101.5 161.443 108.152 151.366C113.875 142.696 90.1519 137.532 93.2138 127.592C101.465 100.806 103.764 98.5528 126.989 86.5084C148.246 75.4844 157.613 92.3039 174.214 106.585C182.343 113.578 200.548 105.076 211.174 106.585C229.912 109.245 279.789 133.716 288.844 151.366C297.418 168.079 277.542 158.157 279.271 178.143C281.453 203.365 288.858 205.25 277.546 229.287Z"
    fill="url(#paint0_linear_33_1144)" />
  <path fill-rule="evenodd" clip-rule="evenodd"
    d="M271.631 96.1983C256.783 107.825 209.236 83.8713 187.018 104.772C164.799 125.672 138.519 126.262 137.542 151.311C136.606 175.315 233.024 263.875 256.51 267.098C280.088 270.333 299.934 242.574 323.61 233.176C339.921 226.703 357.962 231.106 372.674 220.991C388.77 209.925 403.296 193.822 407.32 175.625C411.275 157.737 398.724 143.61 393.378 127.366C387.597 109.801 381.814 91.2101 363.41 87.0883C343.434 82.6143 334.138 100.95 312.989 106.318C294.752 110.947 289.965 81.8413 271.631 96.1983Z"
    fill="url(#paint1_linear_33_1144)" />
  <path fill-rule="evenodd" clip-rule="evenodd"
    d="M123.039 148.12C115.563 175.558 80.0369 156.871 63.0808 176.511C49.9499 191.72 60.3657 232.972 44.5477 239.033C26.5396 245.934 22.8786 203.193 6.03898 198.369C-5.43177 195.084 -18.44 222.106 -29.6033 217.792C-40.1202 213.728 -40.1458 193.106 -43.6967 179.149C-46.7137 167.29 -50.2952 155.3 -48.918 141.871C-47.6183 129.197 -41.0049 117.828 -36.1926 105.973C-32.0522 95.7722 -53.7219 95.7815 -52.0881 84.8721C-47.685 55.472 -103.328 119.919 -83.9893 102.323C-66.2887 86.2166 6.12109 24.8545 22.4543 35.8188C30.4528 41.1882 47.9013 64.4765 57.5197 63.6446C74.4795 62.1778 99.0668 45.6964 109.057 61.8186C118.517 77.0848 151.051 117.053 154.781 137.22C159.487 162.671 130.466 120.861 123.039 148.12Z"
    fill="url(#paint2_linear_33_1144)" />
  <path fill-rule="evenodd" clip-rule="evenodd"
    d="M370.743 31.3456C390.136 33.0284 437.831 106.013 453.914 117.322C476.941 133.514 450.548 50.046 465.157 74.2257C479.157 97.3956 472.54 133.229 453.731 151.989C434.849 170.822 402.219 156.463 376.315 162.841C358.47 167.235 345.08 183.557 326.636 183.282C306.457 182.982 284.889 176.65 271.372 161.281C258.084 146.173 202.039 181.377 197.804 161.733C193.225 140.493 234.914 102.461 248.775 86.1781C263.822 68.5036 298.737 72.7576 320.214 64.0611C338.734 56.5619 350.713 29.6075 370.743 31.3456Z"
    fill="url(#paint3_linear_33_1144)" />
  <defs>
    <linearGradient id="paint0_linear_33_1144" x1="236.379" y1="79.3876" x2="198.555" y2="201.97"
      gradientUnits="userSpaceOnUse">
      <stop stop-color="#E0E3AB" />
      <stop offset="1" stop-color="#3994AA" />
    </linearGradient>
    <linearGradient id="paint1_linear_33_1144" x1="394.808" y1="94.5989" x2="224.593" y2="249.396"
      gradientUnits="userSpaceOnUse">
      <stop stop-color="#DE7D78" />
      <stop offset="1" stop-color="#C7BCEC" />
    </linearGradient>
    <linearGradient id="paint2_linear_33_1144" x1="-44.4406" y1="-10.5046" x2="169.478" y2="152.314"
      gradientUnits="userSpaceOnUse">
      <stop stop-color="#3D66A3" />
      <stop offset="0.255208" stop-color="#40AAC4" />
      <stop offset="0.8125" stop-color="#A1A741" />
    </linearGradient>
    <linearGradient id="paint3_linear_33_1144" x1="237.845" y1="72.6813" x2="400.521" y2="140.737"
      gradientUnits="userSpaceOnUse">
      <stop stop-color="#E2608C" />
      <stop offset="1" stop-color="#E8CB63" />
    </linearGradient>
  </defs>
</svg>