<svg width="94" height="420" viewBox="0 0 94 420" fill="none" xmlns="http://www.w3.org/2000/svg">
  <path fill-rule="evenodd" clip-rule="evenodd"
    d="M13.6421 314.057C-15.2116 322.456 -19.4514 269.061 -46.9305 261.451C-68.2107 255.558 -98.8545 293.604 -113.561 278.831C-130.305 262.014 -94.3608 230.965 -99.9659 208.181C-103.784 192.661 -135.522 194.306 -138.243 178.503C-140.806 163.615 -122.44 150.678 -112.088 137.774C-103.292 126.81 -94.7113 115.102 -81.931 108.313C-69.8694 101.906 -55.8456 102.553 -42.4474 100.781C-30.9199 99.2559 -69.9287 7.31938 -59.2436 2.40887C-30.4477 -10.8247 -9.25649 55.7966 17.8034 67.4816C42.5709 78.1766 54.7463 99.6736 54.5802 125.707C54.4988 138.456 63.8208 148.525 70.2198 159.294C81.5028 178.282 99.822 209.651 91.3274 231.467C83.2838 252.126 74.2609 259.11 58.4782 276.11C38.5605 297.564 42.3089 305.712 13.6421 314.057Z"
    fill="url(#paint0_linear_33_1144)" />
  <path fill-rule="evenodd" clip-rule="evenodd"
    d="M-32.7114 419.427C-59.7896 420.969 -52.4164 375.691 -74.9612 364.158C-92.4201 355.227 -127.23 381.125 -137.073 366.04C-148.279 348.867 -110.269 329.799 -110.455 309.76C-110.582 296.111 -138.789 291.482 -137.894 277.804C-137.051 264.918 -118.237 257.614 -106.467 248.822C-96.4659 241.353 -86.4996 233.222 -73.8681 229.983C-61.9468 226.926 -49.7686 230.116 -37.6371 231.172C-27.1993 232.081 -33.113 208.489 -22.7112 206.418C5.32087 200.839 0.85166 199.976 22.1814 214.824C41.7042 228.415 47.9267 248.623 42.371 270.276C39.6503 280.88 45.7424 291.03 49.1227 301.209C55.0831 319.159 64.6484 348.751 52.6567 365.317C41.3018 381.005 31.9286 385.117 14.5391 396.294C-7.40648 410.399 -5.80867 417.895 -32.7114 419.427Z"
    fill="url(#paint1_linear_33_1144)" />
  <defs>
    <linearGradient id="paint0_linear_33_1144" x1="111.626" y1="161.064" x2="-124.627" y2="223.196"
      gradientUnits="userSpaceOnUse">
      <stop stop-color="#3D66A3" />
      <stop offset="0.379167" stop-color="#40AAC4" />
      <stop offset="1" stop-color="#A1A741" />
    </linearGradient>
    <linearGradient id="paint1_linear_33_1144" x1="85.1086" y1="310.511" x2="-135.262" y2="316.277"
      gradientUnits="userSpaceOnUse">
      <stop stop-color="#E0E3AB" />
      <stop offset="1" stop-color="#3994AA" />
    </linearGradient>
  </defs>
</svg>