<svg width="514" height="629" viewBox="0 0 514 629" fill="none" xmlns="http://www.w3.org/2000/svg">
  <path fill-rule="evenodd" clip-rule="evenodd"
    d="M179.084 273.318C173.974 220.369 24 169 24.0002 82.9999C24.0004 -3 -28.6928 -58.1073 24.0005 -108.5C74.4935 -156.789 465.936 -129.863 521.216 -87.8592C576.713 -45.6902 556.861 48.6878 584.974 115.46C604.34 161.46 651.015 190.001 659.148 239.754C668.046 294.184 662.719 355.118 631.248 398.532C600.311 441.209 543.681 442.724 497.227 463.124C446.996 485.182 394.52 509.219 347.717 479.388C296.912 447.008 317.856 392.5 286.136 338.701C258.783 292.308 185.394 338.701 179.084 273.318Z"
    fill="url(#paint0_linear_0_1)" />
  <path fill-rule="evenodd" clip-rule="evenodd"
    d="M293.738 131.984C344.888 108.728 437.097 19.1408 492.37 22.4752C571.513 27.2494 630.55 117.833 698.794 152.594C764.188 185.903 793.946 276.913 770.781 346C747.525 415.357 646.511 428.183 589.372 478.93C550.01 513.89 537.367 569.841 490.438 594.987C439.096 622.496 376.423 638.181 322.363 621.999C269.221 606.092 248.459 550.633 212.294 511.728C173.187 469.659 131.343 426.051 145.229 369.529C160.303 308.176 221.865 310.137 264.819 260.285C301.86 217.296 240.907 156.004 293.738 131.984Z"
    fill="url(#paint1_linear_0_1)" />
  <defs>
    <linearGradient id="paint0_linear_0_1" x1="428.612" y1="529.357" x2="418.342" y2="-119.228"
      gradientUnits="userSpaceOnUse">
      <stop stop-color="#DE7D78" />
      <stop offset="1" stop-color="#C7BCEC" />
    </linearGradient>
    <linearGradient id="paint1_linear_0_1" x1="122.816" y1="466.674" x2="767.146" y2="233.524"
      gradientUnits="userSpaceOnUse">
      <stop stop-color="#E2608C" />
      <stop offset="1" stop-color="#E8CB63" />
    </linearGradient>
  </defs>
</svg>